<svg xmlns="http://www.w3.org/2000/svg" viewBox="0 0 213.34 48.64"><defs><style>.cls-1{fill:#70777a;}.cls-1,.cls-2,.cls-3{fill-rule:evenodd;}.cls-2{fill:#fff;}.cls-3{fill:#ca0a22;}</style></defs><g id="Layer_2" data-name="Layer 2"><g id="Foreground"><path class="cls-1" d="M18.77,24.32A20.42,20.42,0,1,1,39.19,44.74,20.42,20.42,0,0,1,18.77,24.32Z"/><polygon class="cls-2" points="26.96 11.79 51.6 11.79 40.77 29.81 50.78 29.81 50.78 36.99 26.65 36.99 37.42 18.93 26.96 18.93 26.96 11.79"/><path class="cls-3" d="M33.67,48.64C14.63,47,0,36.71,0,24.32S14.62,1.69,33.65,0h0a.15.15,0,0,1,.15.14.15.15,0,0,1-.11.13,24.67,24.67,0,0,0,0,48.11.13.13,0,0,1,.11.13A.14.14,0,0,1,33.67,48.64Z"/><path class="cls-3" d="M44.7,48.64c19-1.68,33.68-11.93,33.68-24.32S63.75,1.69,44.72,0h0a.14.14,0,0,0,0,.27,24.67,24.67,0,0,1,0,48.11.12.12,0,0,0-.11.13A.13.13,0,0,0,44.7,48.64Z"/><polygon class="cls-1" points="96.11 32.69 109.93 9.8 85.63 9.8 85.63 16.26 97.16 16.26 83.26 39.16 108.41 39.16 108.41 32.69 96.11 32.69"/><path class="cls-1" d="M124.22,8.82c-8.45,0-16.24,6.23-16.24,15.11,0,9.5,6.81,16.2,16.24,16.2s16.24-6.7,16.24-16.2C140.46,15.05,132.67,8.82,124.22,8.82Zm0,7.4c4.55,0,8.29,3.7,8.29,7.75a8.31,8.31,0,1,1-16.59,0C115.92,19.92,119.66,16.22,124.22,16.22Z"/><path class="cls-1" d="M158.11,27.13c4.17-.74,6.42-4.25,6.42-8.3,0-6.27-4.4-9-10.2-9H142.92V39.16h7.63V27.87h.08l7.21,11.29h9.5Zm-7.56-11.49h.74c2.5,0,5.3.47,5.3,3.66s-2.8,3.66-5.3,3.66h-.74Z"/><polygon class="cls-1" points="177.02 9.8 169.39 9.8 169.39 39.16 186.17 39.16 186.17 32.69 177.02 32.69 177.02 9.8"/><path class="cls-1" d="M205.71,9.8V25.26c0,3.81-.27,8-5.18,8s-5.18-4.17-5.18-8V9.8h-7.63V26.31c0,3.78.16,7.51,3.08,10.36,2.45,2.41,6.31,3.27,9.73,3.27s7.28-.86,9.74-3.27c2.92-2.85,3.07-6.58,3.07-10.36V9.8Z"/></g></g></svg>